<mxfile host="65bd71144e" modified="2020-10-09T07:54:22.519Z" agent="5.0 (Macintosh; Intel Mac OS X 10_15_7) AppleWebKit/537.36 (KHTML, like Gecko) Code/1.50.0 Chrome/83.0.4103.122 Electron/9.2.1 Safari/537.36" version="13.6.5" etag="fGulwa_L532pnuGAJ3It">
    <diagram id="A5wXqX30a9Q1zqV54JZ_" name="Page-1">
        <mxGraphModel dx="3389" dy="1003" grid="1" gridSize="10" guides="1" tooltips="1" connect="1" arrows="1" fold="1" page="1" pageScale="1" pageWidth="827" pageHeight="1169" math="0" shadow="0">
            <root>
                <mxCell id="0"/>
                <mxCell id="1" parent="0"/>
                <mxCell id="2" value="" style="rounded=0;whiteSpace=wrap;html=1;" vertex="1" parent="1">
                    <mxGeometry x="80" y="350" width="640" height="520" as="geometry"/>
                </mxCell>
                <mxCell id="4" value="eks-cluster" style="text;html=1;align=center;verticalAlign=middle;resizable=0;points=[];autosize=1;fontStyle=1" vertex="1" parent="1">
                    <mxGeometry x="80" y="350" width="80" height="20" as="geometry"/>
                </mxCell>
                <mxCell id="6" value="" style="rounded=0;whiteSpace=wrap;html=1;dashed=1;dashPattern=1 4;" vertex="1" parent="1">
                    <mxGeometry x="580" y="600" width="130" height="250" as="geometry"/>
                </mxCell>
                <mxCell id="11" value="" style="rounded=0;whiteSpace=wrap;html=1;" vertex="1" parent="1">
                    <mxGeometry x="388" y="600" width="130" height="250" as="geometry"/>
                </mxCell>
                <mxCell id="12" value="&lt;b&gt;NodeN&lt;/b&gt;" style="text;html=1;align=center;verticalAlign=middle;resizable=0;points=[];autosize=1;" vertex="1" parent="1">
                    <mxGeometry x="580" y="600" width="50" height="20" as="geometry"/>
                </mxCell>
                <mxCell id="14" value="Cluster" style="shape=step;perimeter=stepPerimeter;whiteSpace=wrap;html=1;fixedSize=1;dashed=1;fontStyle=1" vertex="1" parent="1">
                    <mxGeometry x="750" y="440" width="120" height="80" as="geometry"/>
                </mxCell>
                <mxCell id="17" value="$ kubectl config use-context &amp;lt;cluster-name&amp;gt;" style="text;html=1;align=center;verticalAlign=middle;resizable=0;points=[];autosize=1;" vertex="1" parent="1">
                    <mxGeometry x="885" y="490" width="250" height="20" as="geometry"/>
                </mxCell>
                <mxCell id="18" value="Node (ec2)" style="shape=step;perimeter=stepPerimeter;whiteSpace=wrap;html=1;fixedSize=1;dashed=1;fontStyle=1" vertex="1" parent="1">
                    <mxGeometry x="750" y="550" width="120" height="80" as="geometry"/>
                </mxCell>
                <mxCell id="19" value="$ kubectl get nodes" style="text;html=1;align=center;verticalAlign=middle;resizable=0;points=[];autosize=1;" vertex="1" parent="1">
                    <mxGeometry x="885" y="580" width="120" height="20" as="geometry"/>
                </mxCell>
                <mxCell id="21" value="$ aws eks --region ap-southeast-1 update-kubeconfig --name &amp;lt;eks-cluster-name&amp;gt;&amp;nbsp;&amp;nbsp;" style="text;html=1;align=center;verticalAlign=middle;resizable=0;points=[];autosize=1;" vertex="1" parent="1">
                    <mxGeometry x="883" y="460" width="460" height="20" as="geometry"/>
                </mxCell>
                <mxCell id="22" value="" style="rounded=0;whiteSpace=wrap;html=1;" vertex="1" parent="1">
                    <mxGeometry x="240" y="600" width="130" height="250" as="geometry"/>
                </mxCell>
                <mxCell id="23" value="" style="rounded=0;whiteSpace=wrap;html=1;" vertex="1" parent="1">
                    <mxGeometry x="93" y="600" width="130" height="250" as="geometry"/>
                </mxCell>
                <mxCell id="9" value="&lt;b&gt;Node2 (ec2)&lt;/b&gt;" style="text;html=1;align=center;verticalAlign=middle;resizable=0;points=[];autosize=1;" vertex="1" parent="1">
                    <mxGeometry x="240" y="600" width="80" height="20" as="geometry"/>
                </mxCell>
                <mxCell id="8" value="&lt;b&gt;Node1 (ec2)&lt;/b&gt;" style="text;html=1;align=center;verticalAlign=middle;resizable=0;points=[];autosize=1;" vertex="1" parent="1">
                    <mxGeometry x="93" y="600" width="80" height="20" as="geometry"/>
                </mxCell>
                <mxCell id="10" value="&lt;b&gt;Node3 (ec2)&lt;/b&gt;" style="text;html=1;align=center;verticalAlign=middle;resizable=0;points=[];autosize=1;" vertex="1" parent="1">
                    <mxGeometry x="388" y="600" width="80" height="20" as="geometry"/>
                </mxCell>
                <mxCell id="24" value="Pod" style="shape=step;perimeter=stepPerimeter;whiteSpace=wrap;html=1;fixedSize=1;dashed=1;fontStyle=1" vertex="1" parent="1">
                    <mxGeometry x="750" y="670" width="120" height="80" as="geometry"/>
                </mxCell>
                <mxCell id="25" value="$ kubectl get pods" style="text;html=1;align=center;verticalAlign=middle;resizable=0;points=[];autosize=1;" vertex="1" parent="1">
                    <mxGeometry x="885" y="700" width="110" height="20" as="geometry"/>
                </mxCell>
                <mxCell id="26" value="" style="rounded=0;whiteSpace=wrap;html=1;fillColor=#6a00ff;strokeColor=#3700CC;fontColor=#ffffff;" vertex="1" parent="1">
                    <mxGeometry x="102" y="740" width="112" height="100" as="geometry"/>
                </mxCell>
                <mxCell id="27" value="Pod.a" style="text;html=1;align=center;verticalAlign=middle;resizable=0;points=[];autosize=1;fontStyle=1" vertex="1" parent="1">
                    <mxGeometry x="98" y="740" width="50" height="20" as="geometry"/>
                </mxCell>
                <mxCell id="29" value="" style="rounded=0;whiteSpace=wrap;html=1;fillColor=#6a00ff;strokeColor=#3700CC;fontColor=#ffffff;" vertex="1" parent="1">
                    <mxGeometry x="249" y="740" width="112" height="100" as="geometry"/>
                </mxCell>
                <mxCell id="30" value="Pod.a" style="text;html=1;align=center;verticalAlign=middle;resizable=0;points=[];autosize=1;fontStyle=1" vertex="1" parent="1">
                    <mxGeometry x="245" y="740" width="50" height="20" as="geometry"/>
                </mxCell>
                <mxCell id="31" value="" style="rounded=0;whiteSpace=wrap;html=1;fillColor=#0050ef;strokeColor=#001DBC;fontColor=#ffffff;" vertex="1" parent="1">
                    <mxGeometry x="249" y="630" width="112" height="100" as="geometry"/>
                </mxCell>
                <mxCell id="32" value="Pod-b" style="text;html=1;align=center;verticalAlign=middle;resizable=0;points=[];autosize=1;fontStyle=1" vertex="1" parent="1">
                    <mxGeometry x="245" y="630" width="50" height="20" as="geometry"/>
                </mxCell>
            </root>
        </mxGraphModel>
    </diagram>
</mxfile>